<svg xmlns="http://www.w3.org/2000/svg" xmlns:xlink="http://www.w3.org/1999/xlink" viewbox="0.00 0.00 653.00 126.00" style="max-width:871px">
<g id="graph0" class="graph" transform="scale(1 1) rotate(0) translate(4 121.5)">
<title>G</title>
<text xml:space="preserve" text-anchor="middle" x="322.55" y="-101.15" font-family="Helvetica,sans-Serif" font-size="13.00" fill="#28251d">लकड़हारा: जटिल पेलोड से फ़िल्टर करें</text>
<!-- s -->
<g id="node1" class="node">
<title>s</title>
<ellipse fill="#28251d" stroke="#28251d" stroke-width="1.2" cx="5.76" cy="-44" rx="5.76" ry="5.76"></ellipse>
</g>
<!-- q -->
<g id="node2" class="node">
<title>q</title>
<path fill="#ffffff" stroke="#01696f" stroke-width="1.2" d="M129.77,-62C129.77,-62 60.52,-62 60.52,-62 54.52,-62 48.52,-56 48.52,-50 48.52,-50 48.52,-38 48.52,-38 48.52,-32 54.52,-26 60.52,-26 60.52,-26 129.77,-26 129.77,-26 135.77,-26 141.77,-32 141.77,-38 141.77,-38 141.77,-50 141.77,-50 141.77,-56 135.77,-62 129.77,-62"></path>
<text xml:space="preserve" text-anchor="middle" x="95.14" y="-39.55" font-family="Helvetica,sans-Serif" font-size="11.00" fill="#01696f">IsEnabled(level)</text>
</g>
<!-- s&#45;&gt;q -->
<g id="edge1" class="edge">
<title>s-&gt;q</title>
<path fill="none" stroke="#28251d" stroke-width="1.1" d="M11.96,-44C17.36,-44 26.42,-44 36.61,-44"></path>
<polygon fill="#28251d" stroke="#28251d" stroke-width="1.1" points="36.31,-47.5 46.31,-44 36.31,-40.5 36.31,-47.5"></polygon>
</g>
<!-- d -->
<g id="node3" class="node">
<title>d</title>
<polygon fill="#ffffff" stroke="#01696f" stroke-width="1.2" points="258.63,-62 178.77,-44 258.63,-26 338.49,-44 258.63,-62"></polygon>
<text xml:space="preserve" text-anchor="middle" x="258.63" y="-41.8" font-family="Helvetica,sans-Serif" font-size="11.00" fill="#01696f">दहलीज पूरी हुई?</text>
</g>
<!-- q&#45;&gt;d -->
<g id="edge2" class="edge">
<title>q-&gt;d</title>
<path fill="none" stroke="#28251d" stroke-width="1.1" d="M141.99,-44C149.19,-44 156.86,-44 164.68,-44"></path>
<polygon fill="#28251d" stroke="#28251d" stroke-width="1.1" points="164.55,-47.5 174.55,-44 164.55,-40.5 164.55,-47.5"></polygon>
</g>
<!-- p -->
<g id="node4" class="node">
<title>p</title>
<path fill="#ffffff" stroke="#01696f" stroke-width="1.2" d="M578.74,-90C578.74,-90 399.99,-90 399.99,-90 393.99,-90 387.99,-84 387.99,-78 387.99,-78 387.99,-66 387.99,-66 387.99,-60 393.99,-54 399.99,-54 399.99,-54 578.74,-54 578.74,-54 584.74,-54 590.74,-60 590.74,-66 590.74,-66 590.74,-78 590.74,-78 590.74,-84 584.74,-90 578.74,-90"></path>
<text xml:space="preserve" text-anchor="middle" x="489.36" y="-69.8" font-family="Helvetica,sans-Serif" font-size="11.00" fill="#01696f">पेलोड बनाएं और LogStream का उपयोग करें।</text>
</g>
<!-- d&#45;&gt;p -->
<g id="edge3" class="edge">
<title>d-&gt;p</title>
<path fill="none" stroke="#28251d" stroke-width="1.1" d="M312.39,-50.46C331.58,-52.81 354.07,-55.56 376.43,-58.3"></path>
<polygon fill="#28251d" stroke="#28251d" stroke-width="1.1" points="375.73,-61.74 386.08,-59.48 376.58,-54.79 375.73,-61.74"></polygon>
<text xml:space="preserve" text-anchor="middle" x="363.24" y="-61.91" font-family="Helvetica,sans-Serif" font-size="10.00" fill="#28251d">हाँ</text>
</g>
<!-- x -->
<g id="node5" class="node">
<title>x</title>
<path fill="#ffffff" stroke="#01696f" stroke-width="1.2" d="M518.36,-36C518.36,-36 460.36,-36 460.36,-36 454.36,-36 448.36,-30 448.36,-24 448.36,-24 448.36,-12 448.36,-12 448.36,-6 454.36,0 460.36,0 460.36,0 518.36,0 518.36,0 524.36,0 530.36,-6 530.36,-12 530.36,-12 530.36,-24 530.36,-24 530.36,-30 524.36,-36 518.36,-36"></path>
<text xml:space="preserve" text-anchor="middle" x="489.36" y="-15.8" font-family="Helvetica,sans-Serif" font-size="11.00" fill="#01696f">महंगी तैयारी छोड़ें</text>
</g>
<!-- d&#45;&gt;x -->
<g id="edge4" class="edge">
<title>d-&gt;x</title>
<path fill="none" stroke="#28251d" stroke-width="1.1" d="M308.86,-36.88C324.11,-34.78 340.98,-32.56 356.49,-30.75 382.8,-27.68 412.12,-24.79 436.43,-22.54"></path>
<polygon fill="#28251d" stroke="#28251d" stroke-width="1.1" points="436.62,-26.04 446.26,-21.64 435.98,-19.07 436.62,-26.04"></polygon>
<text xml:space="preserve" text-anchor="middle" x="363.24" y="-35.5" font-family="Helvetica,sans-Serif" font-size="10.00" fill="#28251d">नहीं</text>
</g>
<!-- e -->
<g id="node6" class="node">
<title>e</title>
<ellipse fill="#28251d" stroke="#28251d" cx="636.42" cy="-44" rx="4.68" ry="4.68"></ellipse>
<ellipse fill="none" stroke="#28251d" cx="636.42" cy="-44" rx="8.68" ry="8.68"></ellipse>
</g>
<!-- p&#45;&gt;e -->
<g id="edge5" class="edge">
<title>p-&gt;e</title>
<path fill="none" stroke="#28251d" stroke-width="1.1" d="M591.06,-53.79C597.39,-52.54 603.65,-51.27 609.74,-50 611.93,-49.54 614.22,-49.04 616.49,-48.53"></path>
<polygon fill="#28251d" stroke="#28251d" stroke-width="1.1" points="617.24,-51.95 626.18,-46.26 615.64,-45.13 617.24,-51.95"></polygon>
</g>
<!-- x&#45;&gt;e -->
<g id="edge6" class="edge">
<title>x-&gt;e</title>
<path fill="none" stroke="#28251d" stroke-width="1.1" d="M530.77,-25.24C558.67,-30.24 594.52,-36.67 616.19,-40.55"></path>
<polygon fill="#28251d" stroke="#28251d" stroke-width="1.1" points="615.3,-43.95 625.76,-42.27 616.54,-37.06 615.3,-43.95"></polygon>
</g>
</g>
</svg>
