<svg xmlns="http://www.w3.org/2000/svg" xmlns:xlink="http://www.w3.org/1999/xlink" viewbox="0.00 0.00 1252.00 128.00" style="max-width:1669px">
<g id="graph0" class="graph" transform="scale(1 1) rotate(0) translate(4 123.5)">
<title>G</title>
<text xml:space="preserve" text-anchor="middle" x="621.88" y="-103.15" font-family="Helvetica,sans-Serif" font-size="13.00" fill="#28251d">PackageManagement: simplified package and update state</text>
<!-- ini -->
<g id="node1" class="node">
<title>ini</title>
<ellipse fill="#28251d" stroke="#28251d" stroke-width="1.2" cx="5.76" cy="-18" rx="5.76" ry="5.76"></ellipse>
</g>
<!-- transfer -->
<g id="node2" class="node vis-priv">
<title>transfer</title>
<g id="a_node2"><a xlink:href="../services/sv_ucm_PackageManagement_3e8fec.html#SWS_UCM_00345" xlink:title="kTransferring" target="_top" class="vis-priv">
<path fill="#ffffff" stroke="#01696f" stroke-width="1.2" d="M172.27,-36C172.27,-36 116.52,-36 116.52,-36 110.52,-36 104.52,-30 104.52,-24 104.52,-24 104.52,-12 104.52,-12 104.52,-6 110.52,0 116.52,0 116.52,0 172.27,0 172.27,0 178.27,0 184.27,-6 184.27,-12 184.27,-12 184.27,-24 184.27,-24 184.27,-30 178.27,-36 172.27,-36"></path>
<text xml:space="preserve" text-anchor="middle" x="144.39" y="-13.55" font-family="Helvetica,sans-Serif" font-size="11.00" fill="#01696f">kTransferring</text>
</a>
</g>
</g>
<!-- ini&#45;&gt;transfer -->
<g id="edge1" class="edge">
<title>ini-&gt;transfer</title>
<path fill="none" stroke="#28251d" stroke-width="1.1" d="M11.95,-18C25.18,-18 61.3,-18 92.34,-18"></path>
<polygon fill="#28251d" stroke="#28251d" stroke-width="1.1" points="92.26,-21.5 102.26,-18 92.26,-14.5 92.26,-21.5"></polygon>
<text xml:space="preserve" text-anchor="middle" x="58.02" y="-19.75" font-family="Helvetica,sans-Serif" font-size="10.00" fill="#28251d">TransferStart</text>
</g>
<!-- transfer&#45;&gt;transfer -->
<g id="edge2" class="edge">
<title>transfer-&gt;transfer</title>
<path fill="none" stroke="#28251d" stroke-width="1.1" d="M128.68,-36.52C126.5,-45.76 131.74,-54 144.39,-54 151.31,-54 156.02,-51.54 158.5,-47.79"></path>
<polygon fill="#28251d" stroke="#28251d" stroke-width="1.1" points="161.93,-48.57 159.88,-38.17 155,-47.58 161.93,-48.57"></polygon>
<text xml:space="preserve" text-anchor="middle" x="144.39" y="-55.75" font-family="Helvetica,sans-Serif" font-size="10.00" fill="#28251d">TransferData</text>
</g>
<!-- process -->
<g id="node3" class="node">
<title>process</title>
<path fill="#ffffff" stroke="#01696f" stroke-width="1.2" d="M433.52,-36C433.52,-36 383.02,-36 383.02,-36 377.02,-36 371.02,-30 371.02,-24 371.02,-24 371.02,-12 371.02,-12 371.02,-6 377.02,0 383.02,0 383.02,0 433.52,0 433.52,0 439.52,0 445.52,-6 445.52,-12 445.52,-12 445.52,-24 445.52,-24 445.52,-30 439.52,-36 433.52,-36"></path>
<text xml:space="preserve" text-anchor="middle" x="408.27" y="-13.55" font-family="Helvetica,sans-Serif" font-size="11.00" fill="#01696f">kProcessing</text>
</g>
<!-- transfer&#45;&gt;process -->
<g id="edge3" class="edge">
<title>transfer-&gt;process</title>
<path fill="none" stroke="#28251d" stroke-width="1.1" d="M184.6,-18C231.23,-18 309.05,-18 359.25,-18"></path>
<polygon fill="#28251d" stroke="#28251d" stroke-width="1.1" points="359.09,-21.5 369.09,-18 359.09,-14.5 359.09,-21.5"></polygon>
<text xml:space="preserve" text-anchor="middle" x="277.64" y="-19.75" font-family="Helvetica,sans-Serif" font-size="10.00" fill="#28251d">TransferExit / ProcessSwPackage</text>
</g>
<!-- prepare -->
<g id="node4" class="node">
<title>prepare</title>
<path fill="#ffffff" stroke="#01696f" stroke-width="1.2" d="M583.02,-36C583.02,-36 538.52,-36 538.52,-36 532.52,-36 526.52,-30 526.52,-24 526.52,-24 526.52,-12 526.52,-12 526.52,-6 532.52,0 538.52,0 538.52,0 583.02,0 583.02,0 589.02,0 595.02,-6 595.02,-12 595.02,-12 595.02,-24 595.02,-24 595.02,-30 589.02,-36 583.02,-36"></path>
<text xml:space="preserve" text-anchor="middle" x="560.77" y="-13.55" font-family="Helvetica,sans-Serif" font-size="11.00" fill="#01696f">kPreparing</text>
</g>
<!-- process&#45;&gt;prepare -->
<g id="edge4" class="edge">
<title>process-&gt;prepare</title>
<path fill="none" stroke="#28251d" stroke-width="1.1" d="M446.09,-18C466.81,-18 492.86,-18 514.79,-18"></path>
<polygon fill="#28251d" stroke="#28251d" stroke-width="1.1" points="514.5,-21.5 524.5,-18 514.5,-14.5 514.5,-21.5"></polygon>
<text xml:space="preserve" text-anchor="middle" x="486.02" y="-19.75" font-family="Helvetica,sans-Serif" font-size="10.00" fill="#28251d">processed</text>
</g>
<!-- active -->
<g id="node5" class="node">
<title>active</title>
<path fill="#ffffff" stroke="#01696f" stroke-width="1.2" d="M722.77,-36C722.77,-36 679.02,-36 679.02,-36 673.02,-36 667.02,-30 667.02,-24 667.02,-24 667.02,-12 667.02,-12 667.02,-6 673.02,0 679.02,0 679.02,0 722.77,0 722.77,0 728.77,0 734.77,-6 734.77,-12 734.77,-12 734.77,-24 734.77,-24 734.77,-30 728.77,-36 722.77,-36"></path>
<text xml:space="preserve" text-anchor="middle" x="700.89" y="-13.55" font-family="Helvetica,sans-Serif" font-size="11.00" fill="#01696f">kActivating</text>
</g>
<!-- prepare&#45;&gt;active -->
<g id="edge5" class="edge">
<title>prepare-&gt;active</title>
<path fill="none" stroke="#28251d" stroke-width="1.1" d="M595.56,-18C613.42,-18 635.58,-18 654.87,-18"></path>
<polygon fill="#28251d" stroke="#28251d" stroke-width="1.1" points="654.79,-21.5 664.79,-18 654.79,-14.5 654.79,-21.5"></polygon>
<text xml:space="preserve" text-anchor="middle" x="631.02" y="-19.75" font-family="Helvetica,sans-Serif" font-size="10.00" fill="#28251d">Activate</text>
</g>
<!-- verify -->
<g id="node6" class="node">
<title>verify</title>
<path fill="#ffffff" stroke="#01696f" stroke-width="1.2" d="M855.02,-36C855.02,-36 816.52,-36 816.52,-36 810.52,-36 804.52,-30 804.52,-24 804.52,-24 804.52,-12 804.52,-12 804.52,-6 810.52,0 816.52,0 816.52,0 855.02,0 855.02,0 861.02,0 867.02,-6 867.02,-12 867.02,-12 867.02,-24 867.02,-24 867.02,-30 861.02,-36 855.02,-36"></path>
<text xml:space="preserve" text-anchor="middle" x="835.77" y="-13.55" font-family="Helvetica,sans-Serif" font-size="11.00" fill="#01696f">kVerifying</text>
</g>
<!-- active&#45;&gt;verify -->
<g id="edge6" class="edge">
<title>active-&gt;verify</title>
<path fill="none" stroke="#28251d" stroke-width="1.1" d="M735.08,-18C752.57,-18 774.2,-18 792.83,-18"></path>
<polygon fill="#28251d" stroke="#28251d" stroke-width="1.1" points="792.61,-21.5 802.61,-18 792.61,-14.5 792.61,-21.5"></polygon>
<text xml:space="preserve" text-anchor="middle" x="769.64" y="-19.75" font-family="Helvetica,sans-Serif" font-size="10.00" fill="#28251d">enabled</text>
</g>
<!-- rollback -->
<g id="node7" class="node vis-priv">
<title>rollback</title>
<g id="a_node7"><a xlink:href="../services/sv_ucm_PackageManagement_3e8fec.html#SWS_UCM_00353" xlink:title="kRollingBack" target="_top" class="vis-priv">
<path fill="#ffffff" stroke="#01696f" stroke-width="1.2" d="M1026.14,-77C1026.14,-77 971.89,-77 971.89,-77 965.89,-77 959.89,-71 959.89,-65 959.89,-65 959.89,-53 959.89,-53 959.89,-47 965.89,-41 971.89,-41 971.89,-41 1026.14,-41 1026.14,-41 1032.14,-41 1038.14,-47 1038.14,-53 1038.14,-53 1038.14,-65 1038.14,-65 1038.14,-71 1032.14,-77 1026.14,-77"></path>
<text xml:space="preserve" text-anchor="middle" x="999.02" y="-54.55" font-family="Helvetica,sans-Serif" font-size="11.00" fill="#01696f">kRollingBack</text>
</a>
</g>
</g>
<!-- verify&#45;&gt;rollback -->
<g id="edge7" class="edge">
<title>verify-&gt;rollback</title>
<path fill="none" stroke="#28251d" stroke-width="1.1" d="M867.48,-25.81C890.35,-31.62 922.05,-39.68 948.48,-46.4"></path>
<polygon fill="#28251d" stroke="#28251d" stroke-width="1.1" points="947.28,-49.71 957.83,-48.78 949,-42.93 947.28,-49.71"></polygon>
<text xml:space="preserve" text-anchor="middle" x="912.39" y="-45.13" font-family="Helvetica,sans-Serif" font-size="10.00" fill="#28251d">Check failed</text>
</g>
<!-- done -->
<g id="node8" class="node">
<title>done</title>
<ellipse fill="#28251d" stroke="#28251d" cx="1190.02" cy="-24" rx="4.68" ry="4.68"></ellipse>
<ellipse fill="none" stroke="#28251d" cx="1190.02" cy="-24" rx="8.68" ry="8.68"></ellipse>
</g>
<!-- verify&#45;&gt;done -->
<g id="edge8" class="edge">
<title>verify-&gt;done</title>
<path fill="none" stroke="#28251d" stroke-width="1.1" d="M867.45,-18.34C907.29,-18.79 978.98,-19.67 1040.27,-20.75 1086.65,-21.57 1141.15,-22.84 1169.56,-23.52"></path>
<polygon fill="#28251d" stroke="#28251d" stroke-width="1.1" points="1169.21,-27.02 1179.29,-23.76 1169.38,-20.02 1169.21,-27.02"></polygon>
<text xml:space="preserve" text-anchor="middle" x="999.02" y="-22.5" font-family="Helvetica,sans-Serif" font-size="10.00" fill="#28251d">successful / Finish</text>
</g>
<!-- rollback&#45;&gt;done -->
<g id="edge9" class="edge">
<title>rollback-&gt;done</title>
<path fill="none" stroke="#28251d" stroke-width="1.1" d="M1038.72,-51.83C1078.79,-44.41 1139.71,-33.13 1170.22,-27.48"></path>
<polygon fill="#28251d" stroke="#28251d" stroke-width="1.1" points="1170.45,-31 1179.65,-25.74 1169.18,-24.12 1170.45,-31"></polygon>
<text xml:space="preserve" text-anchor="middle" x="1088.27" y="-49.43" font-family="Helvetica,sans-Serif" font-size="10.00" fill="#28251d">successful</text>
</g>
<!-- failed -->
<g id="node9" class="node">
<title>failed</title>
<path fill="#ffffff" stroke="#01696f" stroke-width="1.2" d="M1231.77,-98C1231.77,-98 1148.27,-98 1148.27,-98 1142.27,-98 1136.27,-92 1136.27,-86 1136.27,-86 1136.27,-74 1136.27,-74 1136.27,-68 1142.27,-62 1148.27,-62 1148.27,-62 1231.77,-62 1231.77,-62 1237.77,-62 1243.77,-68 1243.77,-74 1243.77,-74 1243.77,-86 1243.77,-86 1243.77,-92 1237.77,-98 1231.77,-98"></path>
<text xml:space="preserve" text-anchor="middle" x="1190.02" y="-75.55" font-family="Helvetica,sans-Serif" font-size="11.00" fill="#01696f">kRollingBackFailed</text>
</g>
<!-- rollback&#45;&gt;failed -->
<g id="edge10" class="edge">
<title>rollback-&gt;failed</title>
<path fill="none" stroke="#28251d" stroke-width="1.1" d="M1038.69,-61.99C1061.81,-63.91 1091.76,-66.63 1118.27,-69.75 1120.22,-69.98 1122.2,-70.22 1124.19,-70.47"></path>
<polygon fill="#28251d" stroke="#28251d" stroke-width="1.1" points="1123.73,-73.94 1134.1,-71.76 1124.63,-67 1123.73,-73.94"></polygon>
<text xml:space="preserve" text-anchor="middle" x="1088.27" y="-71.5" font-family="Helvetica,sans-Serif" font-size="10.00" fill="#28251d">failed</text>
</g>
<!-- failed&#45;&gt;rollback -->
<g id="edge11" class="edge">
<title>failed-&gt;rollback</title>
<path fill="none" stroke="#28251d" stroke-width="1.1" d="M1135.83,-84.9C1111.94,-85.95 1083.5,-85.61 1058.27,-81 1055.43,-80.48 1052.55,-79.83 1049.67,-79.09"></path>
<polygon fill="#28251d" stroke="#28251d" stroke-width="1.1" points="1050.81,-75.77 1040.23,-76.26 1048.81,-82.48 1050.81,-75.77"></polygon>
<text xml:space="preserve" text-anchor="middle" x="1088.27" y="-87.14" font-family="Helvetica,sans-Serif" font-size="10.00" fill="#28251d">rollback again</text>
</g>
</g>
</svg>
