<svg xmlns="http://www.w3.org/2000/svg" xmlns:xlink="http://www.w3.org/1999/xlink" viewbox="0.00 0.00 574.00 145.00" style="max-width:765px">
<g id="graph0" class="graph" transform="scale(1 1) rotate(0) translate(4 141.13)">
<title>G</title>
<text xml:space="preserve" text-anchor="middle" x="283.01" y="-120.78" font-family="Helvetica,sans-Serif" font-size="13.00" fill="#28251d">Event-abonnement: statussen bij uitval en herstel</text>
<!-- start -->
<g id="node1" class="node">
<title>start</title>
<ellipse fill="#28251d" stroke="#28251d" stroke-width="1.2" cx="5.76" cy="-33.03" rx="5.76" ry="5.76"></ellipse>
</g>
<!-- notsub -->
<g id="node2" class="node">
<title>notsub</title>
<path fill="#ffffff" stroke="#01696f" stroke-width="1.2" d="M129.02,-51.03C129.02,-51.03 60.52,-51.03 60.52,-51.03 54.52,-51.03 48.52,-45.03 48.52,-39.03 48.52,-39.03 48.52,-27.03 48.52,-27.03 48.52,-21.03 54.52,-15.03 60.52,-15.03 60.52,-15.03 129.02,-15.03 129.02,-15.03 135.02,-15.03 141.02,-21.03 141.02,-27.03 141.02,-27.03 141.02,-39.03 141.02,-39.03 141.02,-45.03 135.02,-51.03 129.02,-51.03"></path>
<text xml:space="preserve" text-anchor="middle" x="94.77" y="-28.58" font-family="Helvetica,sans-Serif" font-size="11.00" fill="#01696f">kNotSubscribed</text>
</g>
<!-- start&#45;&gt;notsub -->
<g id="edge1" class="edge">
<title>start-&gt;notsub</title>
<path fill="none" stroke="#28251d" stroke-width="1.1" d="M11.94,-33.03C17.37,-33.03 26.52,-33.03 36.78,-33.03"></path>
<polygon fill="#28251d" stroke="#28251d" stroke-width="1.1" points="36.57,-36.53 46.57,-33.03 36.57,-29.53 36.57,-36.53"></polygon>
</g>
<!-- pending -->
<g id="node3" class="node">
<title>pending</title>
<path fill="#ffffff" stroke="#01696f" stroke-width="1.2" d="M346.02,-85.03C346.02,-85.03 249.77,-85.03 249.77,-85.03 243.77,-85.03 237.77,-79.03 237.77,-73.03 237.77,-73.03 237.77,-61.03 237.77,-61.03 237.77,-55.03 243.77,-49.03 249.77,-49.03 249.77,-49.03 346.02,-49.03 346.02,-49.03 352.02,-49.03 358.02,-55.03 358.02,-61.03 358.02,-61.03 358.02,-73.03 358.02,-73.03 358.02,-79.03 352.02,-85.03 346.02,-85.03"></path>
<text xml:space="preserve" text-anchor="middle" x="297.89" y="-62.58" font-family="Helvetica,sans-Serif" font-size="11.00" fill="#01696f">kSubscriptionPending</text>
</g>
<!-- notsub&#45;&gt;pending -->
<g id="edge2" class="edge">
<title>notsub-&gt;pending</title>
<path fill="none" stroke="#28251d" stroke-width="1.1" d="M141.34,-41.84C147.29,-42.94 153.29,-44.03 159.02,-45.03 180.78,-48.83 204.52,-52.71 226.07,-56.13"></path>
<polygon fill="#28251d" stroke="#28251d" stroke-width="1.1" points="225.38,-59.57 235.81,-57.67 226.47,-52.65 225.38,-59.57"></polygon>
<text xml:space="preserve" text-anchor="middle" x="189.39" y="-56.83" font-family="Helvetica,sans-Serif" font-size="10.00" fill="#28251d">Subscribe()</text>
</g>
<!-- pending&#45;&gt;notsub -->
<g id="edge3" class="edge">
<title>pending-&gt;notsub</title>
<path fill="none" stroke="#28251d" stroke-width="1.1" d="M264.57,-48.51C251.16,-41.84 235.16,-35.13 219.77,-31.78 198.29,-27.1 174.23,-26.35 153.05,-27.15"></path>
<polygon fill="#28251d" stroke="#28251d" stroke-width="1.1" points="153.09,-23.64 143.28,-27.64 153.44,-30.63 153.09,-23.64"></polygon>
<text xml:space="preserve" text-anchor="middle" x="189.39" y="-33.53" font-family="Helvetica,sans-Serif" font-size="10.00" fill="#28251d">Unsubscribe()</text>
</g>
<!-- sub -->
<g id="node4" class="node">
<title>sub</title>
<path fill="#ffffff" stroke="#01696f" stroke-width="1.2" d="M554.02,-68.03C554.02,-68.03 502.77,-68.03 502.77,-68.03 496.77,-68.03 490.77,-62.03 490.77,-56.03 490.77,-56.03 490.77,-44.03 490.77,-44.03 490.77,-38.03 496.77,-32.03 502.77,-32.03 502.77,-32.03 554.02,-32.03 554.02,-32.03 560.02,-32.03 566.02,-38.03 566.02,-44.03 566.02,-44.03 566.02,-56.03 566.02,-56.03 566.02,-62.03 560.02,-68.03 554.02,-68.03"></path>
<text xml:space="preserve" text-anchor="middle" x="528.39" y="-45.58" font-family="Helvetica,sans-Serif" font-size="11.00" fill="#01696f">kSubscribed</text>
</g>
<!-- pending&#45;&gt;sub -->
<g id="edge4" class="edge">
<title>pending-&gt;sub</title>
<path fill="none" stroke="#28251d" stroke-width="1.1" d="M339.35,-85.61C375.3,-99.43 428.83,-113.33 472.77,-97.03 484.38,-92.72 495.18,-84.71 504.06,-76.52"></path>
<polygon fill="#28251d" stroke="#28251d" stroke-width="1.1" points="506.44,-79.08 511.08,-69.56 501.51,-74.11 506.44,-79.08"></polygon>
<text xml:space="preserve" text-anchor="middle" x="424.39" y="-106.13" font-family="Helvetica,sans-Serif" font-size="10.00" fill="#28251d">Abonnement aktiv</text>
</g>
<!-- pending&#45;&gt;sub -->
<g id="edge5" class="edge">
<title>pending-&gt;sub</title>
<path fill="none" stroke="#28251d" stroke-width="1.1" d="M358.33,-62.6C395.88,-59.81 443.77,-56.25 478.98,-53.63"></path>
<polygon fill="#28251d" stroke="#28251d" stroke-width="1.1" points="479.04,-57.13 488.75,-52.9 478.52,-50.15 479.04,-57.13"></polygon>
<text xml:space="preserve" text-anchor="middle" x="424.39" y="-74.04" font-family="Helvetica,sans-Serif" font-size="10.00" fill="#28251d">CM stellt Abonnement</text>
<text xml:space="preserve" text-anchor="middle" x="424.39" y="-62.79" font-family="Helvetica,sans-Serif" font-size="10.00" fill="#28251d">erneut her</text>
</g>
<!-- sub&#45;&gt;notsub -->
<g id="edge6" class="edge">
<title>sub-&gt;notsub</title>
<path fill="none" stroke="#28251d" stroke-width="1.1" d="M503.15,-31.51C494.11,-25.69 483.44,-20 472.77,-17.03 362.62,13.66 227.42,-4.93 152.54,-19.88"></path>
<polygon fill="#28251d" stroke="#28251d" stroke-width="1.1" points="152.22,-16.37 143.12,-21.81 153.62,-23.23 152.22,-16.37"></polygon>
<text xml:space="preserve" text-anchor="middle" x="297.89" y="-8.05" font-family="Helvetica,sans-Serif" font-size="10.00" fill="#28251d">Unsubscribe()</text>
</g>
<!-- sub&#45;&gt;pending -->
<g id="edge7" class="edge">
<title>sub-&gt;pending</title>
<path fill="none" stroke="#28251d" stroke-width="1.1" d="M490.38,-32.54C484.6,-30.47 478.61,-28.68 472.77,-27.53 430.59,-19.18 417.82,-17.45 376.02,-27.53 362.67,-30.75 349.04,-36.69 337.02,-43.01"></path>
<polygon fill="#28251d" stroke="#28251d" stroke-width="1.1" points="335.44,-39.89 328.38,-47.79 338.82,-46.01 335.44,-39.89"></polygon>
<text xml:space="preserve" text-anchor="middle" x="424.39" y="-40.53" font-family="Helvetica,sans-Serif" font-size="10.00" fill="#28251d">Dienst temporär</text>
<text xml:space="preserve" text-anchor="middle" x="424.39" y="-29.28" font-family="Helvetica,sans-Serif" font-size="10.00" fill="#28251d">nicht verfügbar</text>
</g>
</g>
</svg>
