<svg xmlns="http://www.w3.org/2000/svg" xmlns:xlink="http://www.w3.org/1999/xlink" viewbox="0.00 0.00 1006.00 120.00" style="max-width:1341px">
<g id="graph0" class="graph" transform="scale(1 1) rotate(0) translate(4 115.5)">
<title>G</title>
<text xml:space="preserve" text-anchor="middle" x="499.15" y="-95.15" font-family="Helvetica,sans-Serif" font-size="13.00" fill="#28251d">Ofrecer llamadas a métodos de proceso y servicio.</text>
<!-- a -->
<g id="node1" class="node">
<title>a</title>
<ellipse fill="#28251d" stroke="#28251d" stroke-width="1.2" cx="5.76" cy="-45" rx="5.76" ry="5.76"></ellipse>
</g>
<!-- o -->
<g id="node2" class="node vis-app">
<title>o</title>
<g id="a_node2"><a xlink:href="cl_SI_Namespace_skeleton_SI_Skeleton_317026.html" xlink:title="OfferService()" target="_top" class="vis-app">
<path fill="#ffffff" stroke="#01696f" stroke-width="1.2" d="M120.02,-63C120.02,-63 60.52,-63 60.52,-63 54.52,-63 48.52,-57 48.52,-51 48.52,-51 48.52,-39 48.52,-39 48.52,-33 54.52,-27 60.52,-27 60.52,-27 120.02,-27 120.02,-27 126.02,-27 132.02,-33 132.02,-39 132.02,-39 132.02,-51 132.02,-51 132.02,-57 126.02,-63 120.02,-63"></path>
<text xml:space="preserve" text-anchor="middle" x="90.27" y="-40.55" font-family="Helvetica,sans-Serif" font-size="11.00" fill="#01696f">OfferService()</text>
</a>
</g>
</g>
<!-- a&#45;&gt;o -->
<g id="edge1" class="edge">
<title>a-&gt;o</title>
<path fill="none" stroke="#28251d" stroke-width="1.1" d="M11.67,-45C17.08,-45 26.37,-45 36.68,-45"></path>
<polygon fill="#28251d" stroke="#28251d" stroke-width="1.1" points="36.48,-48.5 46.48,-45 36.48,-41.5 36.48,-48.5"></polygon>
</g>
<!-- m -->
<g id="node3" class="node">
<title>m</title>
<polygon fill="#ffffff" stroke="#01696f" stroke-width="1.2" points="280.85,-63 169.02,-45 280.85,-27 392.68,-45 280.85,-63"></polygon>
<text xml:space="preserve" text-anchor="middle" x="280.85" y="-40.55" font-family="Helvetica,sans-Serif" font-size="11.00" fill="#01696f">Modo de procesamiento</text>
</g>
<!-- o&#45;&gt;m -->
<g id="edge2" class="edge">
<title>o-&gt;m</title>
<path fill="none" stroke="#28251d" stroke-width="1.1" d="M132.19,-45C138.88,-45 146.1,-45 153.64,-45"></path>
<polygon fill="#28251d" stroke="#28251d" stroke-width="1.1" points="153.61,-48.5 163.61,-45 153.61,-41.5 153.61,-48.5"></polygon>
</g>
<!-- p -->
<g id="node4" class="node vis-app">
<title>p</title>
<g id="a_node4"><a xlink:href="cl_SI_Namespace_skeleton_SI_Skeleton_317026.html" xlink:title="kPoll: ProcessNextMethodCall()" target="_top" class="vis-app">
<path fill="#ffffff" stroke="#01696f" stroke-width="1.2" d="M751.06,-90C751.06,-90 606.06,-90 606.06,-90 600.06,-90 594.06,-84 594.06,-78 594.06,-78 594.06,-66 594.06,-66 594.06,-60 600.06,-54 606.06,-54 606.06,-54 751.06,-54 751.06,-54 757.06,-54 763.06,-60 763.06,-66 763.06,-66 763.06,-78 763.06,-78 763.06,-84 757.06,-90 751.06,-90"></path>
<text xml:space="preserve" text-anchor="middle" x="678.56" y="-67.55" font-family="Helvetica,sans-Serif" font-size="11.00" fill="#01696f">kPoll: ProcessNextMethodCall()</text>
</a>
</g>
</g>
<!-- m&#45;&gt;p -->
<g id="edge3" class="edge">
<title>m-&gt;p</title>
<path fill="none" stroke="#28251d" stroke-width="1.1" d="M361.93,-50.46C425.54,-54.8 514.7,-60.89 582.04,-65.48"></path>
<polygon fill="#28251d" stroke="#28251d" stroke-width="1.1" points="581.62,-68.96 591.84,-66.15 582.1,-61.98 581.62,-68.96"></polygon>
<text xml:space="preserve" text-anchor="middle" x="474.43" y="-63.46" font-family="Helvetica,sans-Serif" font-size="10.00" fill="#28251d">kPoll</text>
</g>
<!-- e -->
<g id="node5" class="node vis-app">
<title>e</title>
<g id="a_node5"><a xlink:href="../namespaces/ns_com_ara_com_4a3210.html" xlink:title="kEvent / kEventSingleThread: envío asincrónico" target="_top" class="vis-app">
<path fill="#ffffff" stroke="#01696f" stroke-width="1.2" d="M788.93,-36C788.93,-36 568.18,-36 568.18,-36 562.18,-36 556.18,-30 556.18,-24 556.18,-24 556.18,-12 556.18,-12 556.18,-6 562.18,0 568.18,0 568.18,0 788.93,0 788.93,0 794.93,0 800.93,-6 800.93,-12 800.93,-12 800.93,-24 800.93,-24 800.93,-30 794.93,-36 788.93,-36"></path>
<text xml:space="preserve" text-anchor="middle" x="678.56" y="-13.55" font-family="Helvetica,sans-Serif" font-size="11.00" fill="#01696f">kEvent / kEventSingleThread: envío asincrónico</text>
</a>
</g>
</g>
<!-- m&#45;&gt;e -->
<g id="edge4" class="edge">
<title>m-&gt;e</title>
<path fill="none" stroke="#28251d" stroke-width="1.1" d="M361.93,-39.54C414.22,-35.97 483.78,-31.22 544.29,-27.09"></path>
<polygon fill="#28251d" stroke="#28251d" stroke-width="1.1" points="544.47,-30.59 554.21,-26.42 543.99,-23.61 544.47,-30.59"></polygon>
<text xml:space="preserve" text-anchor="middle" x="474.43" y="-37.25" font-family="Helvetica,sans-Serif" font-size="10.00" fill="#28251d">kEvent / kEventSingleThread</text>
</g>
<!-- z -->
<g id="node6" class="node vis-app">
<title>z</title>
<g id="a_node6"><a xlink:href="cl_SI_Namespace_skeleton_SI_Skeleton_317026.html" xlink:title="StopOfferService()" target="_top" class="vis-app">
<path fill="#ffffff" stroke="#01696f" stroke-width="1.2" d="M931.93,-62C931.93,-62 849.93,-62 849.93,-62 843.93,-62 837.93,-56 837.93,-50 837.93,-50 837.93,-38 837.93,-38 837.93,-32 843.93,-26 849.93,-26 849.93,-26 931.93,-26 931.93,-26 937.93,-26 943.93,-32 943.93,-38 943.93,-38 943.93,-50 943.93,-50 943.93,-56 937.93,-62 931.93,-62"></path>
<text xml:space="preserve" text-anchor="middle" x="890.93" y="-39.55" font-family="Helvetica,sans-Serif" font-size="11.00" fill="#01696f">StopOfferService()</text>
</a>
</g>
</g>
<!-- p&#45;&gt;z -->
<g id="edge5" class="edge">
<title>p-&gt;z</title>
<path fill="none" stroke="#28251d" stroke-width="1.1" d="M763.61,-60.81C784.46,-58.04 806.48,-55.11 826.18,-52.48"></path>
<polygon fill="#28251d" stroke="#28251d" stroke-width="1.1" points="826.39,-55.99 835.84,-51.2 825.46,-49.05 826.39,-55.99"></polygon>
</g>
<!-- e&#45;&gt;z -->
<g id="edge6" class="edge">
<title>e-&gt;z</title>
<path fill="none" stroke="#28251d" stroke-width="1.1" d="M801.32,-33.05C809.87,-34.11 818.27,-35.14 826.28,-36.13"></path>
<polygon fill="#28251d" stroke="#28251d" stroke-width="1.1" points="825.71,-39.59 836.07,-37.34 826.57,-32.64 825.71,-39.59"></polygon>
</g>
<!-- f -->
<g id="node7" class="node">
<title>f</title>
<ellipse fill="#28251d" stroke="#28251d" cx="989.61" cy="-44" rx="4.68" ry="4.68"></ellipse>
<ellipse fill="none" stroke="#28251d" cx="989.61" cy="-44" rx="8.68" ry="8.68"></ellipse>
</g>
<!-- z&#45;&gt;f -->
<g id="edge7" class="edge">
<title>z-&gt;f</title>
<path fill="none" stroke="#28251d" stroke-width="1.1" d="M944.51,-44C953.26,-44 961.82,-44 969.04,-44"></path>
<polygon fill="#28251d" stroke="#28251d" stroke-width="1.1" points="968.97,-47.5 978.97,-44 968.97,-40.5 968.97,-47.5"></polygon>
</g>
</g>
</svg>
