<svg xmlns="http://www.w3.org/2000/svg" xmlns:xlink="http://www.w3.org/1999/xlink" viewbox="0.00 0.00 511.00 44.00" style="max-width:681px">
<g id="graph0" class="graph" transform="scale(1 1) rotate(0) translate(4 40)">
<title>G</title>
<!-- s -->
<g id="node1" class="node">
<title>s</title>
<ellipse fill="#28251d" stroke="#28251d" stroke-width="1.2" cx="5.76" cy="-18" rx="5.76" ry="5.76"></ellipse>
</g>
<!-- is -->
<g id="node2" class="node vis-app">
<title>is</title>
<g id="a_node2"><a xlink:href="cl_ara_core_InstanceSpecifier_4f5967.html" xlink:title="InstanceSpecifier (ruta)" target="_top" class="vis-app">
<path fill="#ffffff" stroke="#01696f" stroke-width="1.2" d="M134.02,-36C134.02,-36 59.52,-36 59.52,-36 53.52,-36 47.52,-30 47.52,-24 47.52,-24 47.52,-12 47.52,-12 47.52,-6 53.52,0 59.52,0 59.52,0 134.02,0 134.02,0 140.02,0 146.02,-6 146.02,-12 146.02,-12 146.02,-24 146.02,-24 146.02,-30 140.02,-36 134.02,-36"></path>
<text xml:space="preserve" text-anchor="middle" x="96.77" y="-19.55" font-family="Helvetica,sans-Serif" font-size="11.00" fill="#01696f">InstanceSpecifier</text>
<text xml:space="preserve" text-anchor="middle" x="96.77" y="-7.55" font-family="Helvetica,sans-Serif" font-size="11.00" fill="#01696f">(ruta)</text>
</a>
</g>
</g>
<!-- s&#45;&gt;is -->
<g id="edge1" class="edge">
<title>s-&gt;is</title>
<path fill="none" stroke="#28251d" stroke-width="1.1" d="M12.06,-18C17.28,-18 25.87,-18 35.61,-18"></path>
<polygon fill="#28251d" stroke="#28251d" stroke-width="1.1" points="35.3,-21.5 45.3,-18 35.3,-14.5 35.3,-21.5"></polygon>
</g>
<!-- resolve -->
<g id="node3" class="node">
<title>resolve</title>
<path fill="#ffffff" stroke="#01696f" stroke-width="1.2" d="M295.52,-36C295.52,-36 194.02,-36 194.02,-36 188.02,-36 182.02,-30 182.02,-24 182.02,-24 182.02,-12 182.02,-12 182.02,-6 188.02,0 194.02,0 194.02,0 295.52,0 295.52,0 301.52,0 307.52,-6 307.52,-12 307.52,-12 307.52,-24 307.52,-24 307.52,-30 301.52,-36 295.52,-36"></path>
<text xml:space="preserve" text-anchor="middle" x="244.77" y="-19.55" font-family="Helvetica,sans-Serif" font-size="11.00" fill="#01696f">ResolverInstanceIDs</text>
<text xml:space="preserve" text-anchor="middle" x="244.77" y="-7.55" font-family="Helvetica,sans-Serif" font-size="11.00" fill="#01696f">(en Functional Cluster)</text>
</g>
<!-- is&#45;&gt;resolve -->
<g id="edge2" class="edge">
<title>is-&gt;resolve</title>
<path fill="none" stroke="#28251d" stroke-width="1.1" d="M146.39,-18C154.05,-18 162.13,-18 170.21,-18"></path>
<polygon fill="#28251d" stroke="#28251d" stroke-width="1.1" points="169.94,-21.5 179.94,-18 169.94,-14.5 169.94,-21.5"></polygon>
</g>
<!-- ii -->
<g id="node4" class="node vis-app">
<title>ii</title>
<g id="a_node4"><a xlink:href="cl_ara_com_InstanceIdentifier_662eea.html" xlink:title="InstanceIdentifier (enlace específico)" target="_top" class="vis-app">
<path fill="#ffffff" stroke="#01696f" stroke-width="1.2" d="M437.52,-36C437.52,-36 355.52,-36 355.52,-36 349.52,-36 343.52,-30 343.52,-24 343.52,-24 343.52,-12 343.52,-12 343.52,-6 349.52,0 355.52,0 355.52,0 437.52,0 437.52,0 443.52,0 449.52,-6 449.52,-12 449.52,-12 449.52,-24 449.52,-24 449.52,-30 443.52,-36 437.52,-36"></path>
<text xml:space="preserve" text-anchor="middle" x="396.52" y="-19.55" font-family="Helvetica,sans-Serif" font-size="11.00" fill="#01696f">InstanceIdentifier</text>
<text xml:space="preserve" text-anchor="middle" x="396.52" y="-7.55" font-family="Helvetica,sans-Serif" font-size="11.00" fill="#01696f">(enlace específico)</text>
</a>
</g>
</g>
<!-- resolve&#45;&gt;ii -->
<g id="edge3" class="edge">
<title>resolve-&gt;ii</title>
<path fill="none" stroke="#28251d" stroke-width="1.1" d="M307.98,-18C315.86,-18 323.93,-18 331.84,-18"></path>
<polygon fill="#28251d" stroke="#28251d" stroke-width="1.1" points="331.59,-21.5 341.59,-18 331.59,-14.5 331.59,-21.5"></polygon>
</g>
<!-- end -->
<g id="node5" class="node">
<title>end</title>
<ellipse fill="#28251d" stroke="#28251d" cx="494.2" cy="-18" rx="4.68" ry="4.68"></ellipse>
<ellipse fill="none" stroke="#28251d" cx="494.2" cy="-18" rx="8.68" ry="8.68"></ellipse>
</g>
<!-- ii&#45;&gt;end -->
<g id="edge4" class="edge">
<title>ii-&gt;end</title>
<path fill="none" stroke="#28251d" stroke-width="1.1" d="M450.12,-18C458.48,-18 466.65,-18 473.58,-18"></path>
<polygon fill="#28251d" stroke="#28251d" stroke-width="1.1" points="473.46,-21.5 483.46,-18 473.46,-14.5 473.46,-21.5"></polygon>
</g>
</g>
</svg>
