<svg xmlns="http://www.w3.org/2000/svg" xmlns:xlink="http://www.w3.org/1999/xlink" viewbox="0.00 0.00 508.00 83.00" style="max-width:677px">
<g id="graph0" class="graph" transform="scale(1 1) rotate(0) translate(4 78.73)">
<title>G</title>
<text xml:space="preserve" text-anchor="middle" x="250" y="-58.38" font-family="Helvetica,sans-Serif" font-size="13.00" fill="#28251d">एक संयुक्त अवधि अनुबंध के रूप में कोर</text>
<!-- app -->
<g id="node1" class="node">
<title>app</title>
<polygon fill="#ffffff" stroke="#01696f" stroke-width="1.2" points="54,-47.23 0,-47.23 0,-6.23 54,-6.23 54,-47.23"></polygon>
<text xml:space="preserve" text-anchor="middle" x="27" y="-32.78" font-family="Helvetica,sans-Serif" font-size="11.00" fill="#01696f">अनुकूली</text>
<text xml:space="preserve" text-anchor="middle" x="27" y="-16.28" font-family="Helvetica,sans-Serif" font-size="11.00" fill="#01696f">आवेदन</text>
</g>
<!-- core -->
<g id="node2" class="node vis-app">
<title>core</title>
<g id="a_node2"><a xlink:href="../namespaces/ns_core_ara_core_e30e31.html" xlink:title="ara::core" target="_top" class="vis-app">
<polygon fill="#ffffff" stroke="#01696f" stroke-width="1.2" points="275.5,-44.73 216.75,-44.73 216.75,-8.73 275.5,-8.73 275.5,-44.73"></polygon>
<text xml:space="preserve" text-anchor="middle" x="246.12" y="-22.28" font-family="Helvetica,sans-Serif" font-size="11.00" fill="#01696f">ara::core</text>
</a>
</g>
</g>
<!-- app&#45;&gt;core -->
<g id="edge1" class="edge">
<title>app-&gt;core</title>
<path fill="none" stroke="#28251d" stroke-width="1.1" d="M54.19,-26.73C91.69,-26.73 161.02,-26.73 205.01,-26.73"></path>
<polygon fill="#28251d" stroke="#28251d" stroke-width="1.1" points="204.76,-30.23 214.76,-26.73 204.76,-23.23 204.76,-30.23"></polygon>
<text xml:space="preserve" text-anchor="middle" x="135.38" y="-28.48" font-family="Helvetica,sans-Serif" font-size="10.00" fill="#28251d">1: Initialize()\n4: Deinitialize()</text>
</g>
<!-- fc -->
<g id="node3" class="node">
<title>fc</title>
<polygon fill="#ffffff" stroke="#01696f" stroke-width="1.2" points="500,-47.23 445,-47.23 445,-6.23 500,-6.23 500,-47.23"></polygon>
<text xml:space="preserve" text-anchor="middle" x="472.5" y="-32.78" font-family="Helvetica,sans-Serif" font-size="11.00" fill="#01696f">कार्यात्मक</text>
<text xml:space="preserve" text-anchor="middle" x="472.5" y="-16.28" font-family="Helvetica,sans-Serif" font-size="11.00" fill="#01696f">कलस्टरों</text>
</g>
<!-- core&#45;&gt;fc -->
<g id="edge2" class="edge">
<title>core-&gt;fc</title>
<path fill="none" stroke="#28251d" stroke-width="1.1" d="M276,-26.73C316.01,-26.73 388.39,-26.73 432.97,-26.73"></path>
<polygon fill="#28251d" stroke="#28251d" stroke-width="1.1" points="432.82,-30.23 442.82,-26.73 432.82,-23.23 432.82,-30.23"></polygon>
<text xml:space="preserve" text-anchor="middle" x="360.25" y="-31.48" font-family="Helvetica,sans-Serif" font-size="10.00" fill="#28251d">2: आवश्यकतानुसार प्रारंभ किया गया</text>
</g>
<!-- fc&#45;&gt;core -->
<g id="edge3" class="edge">
<title>fc-&gt;core</title>
<path fill="none" stroke="#28251d" stroke-width="1.1" d="M444.72,-13.8C439,-11.59 432.9,-9.64 427,-8.48 368.79,3 351.79,2.58 293.5,-8.48 291.33,-8.89 289.14,-9.4 286.94,-9.98"></path>
<polygon fill="#28251d" stroke="#28251d" stroke-width="1.1" points="286.13,-6.57 277.66,-12.92 288.25,-13.24 286.13,-6.57"></polygon>
<text xml:space="preserve" text-anchor="middle" x="360.25" y="-13.23" font-family="Helvetica,sans-Serif" font-size="10.00" fill="#28251d">3: सामान्य प्रकार/त्रुटि अनुबंध</text>
</g>
</g>
</svg>
