<svg xmlns="http://www.w3.org/2000/svg" xmlns:xlink="http://www.w3.org/1999/xlink" width="161pt" height="199pt" viewbox="0.00 0.00 161.00 199.00" style="max-width:100%;height:auto">
<g id="graph0" class="graph" transform="scale(1 1) rotate(0) translate(4 195)">
<title>G</title>
<!-- nara__com__SamplePtr589 -->
<g id="node1" class="node vis-app">
<title>nara__com__SamplePtr589</title>
<polygon fill="#f9f8f5" stroke="none" points="0,0 0,-191 152.75,-191 152.75,0 0,0"></polygon>
<polygon fill="#01696f" stroke="#01696f" points="0,-165.25 0,-165.25 152.75,-165.25 152.75,-165.25 0,-165.25"></polygon>
<polygon fill="#01696f" stroke="#01696f" points="0,-140.5 0,-140.5 152.75,-140.5 152.75,-140.5 0,-140.5"></polygon>
<polygon fill="none" stroke="#01696f" points="0,0 0,-191 152.75,-191 152.75,0 0,0"></polygon>
<text xml:space="preserve" text-anchor="start" x="7" y="-173.6" font-family="Helvetica,sans-Serif" font-weight="bold" font-size="12.00" fill="#28251d">SamplePtr</text>
<text xml:space="preserve" text-anchor="start" x="7" y="-149.5" font-family="Helvetica,sans-Serif" font-size="12.00" fill="#28251d"> </text>
<text xml:space="preserve" text-anchor="start" x="7" y="-124.75" font-family="Helvetica,sans-Serif" font-size="12.00" fill="#28251d">+ SamplePtr()</text>
<text xml:space="preserve" text-anchor="start" x="7" y="-112" font-family="Helvetica,sans-Serif" font-size="12.00" fill="#28251d">+ operator=()</text>
<text xml:space="preserve" text-anchor="start" x="7" y="-99.25" font-family="Helvetica,sans-Serif" font-size="12.00" fill="#28251d">+ ~SamplePtr()</text>
<text xml:space="preserve" text-anchor="start" x="7" y="-86.5" font-family="Helvetica,sans-Serif" font-size="12.00" fill="#28251d">+ Get()</text>
<text xml:space="preserve" text-anchor="start" x="7" y="-73.75" font-family="Helvetica,sans-Serif" font-size="12.00" fill="#28251d">+ GetProfileCheckStatus()</text>
<text xml:space="preserve" text-anchor="start" x="7" y="-61" font-family="Helvetica,sans-Serif" font-size="12.00" fill="#28251d">+ Reset()</text>
<text xml:space="preserve" text-anchor="start" x="7" y="-48.25" font-family="Helvetica,sans-Serif" font-size="12.00" fill="#28251d">+ Swap()</text>
<text xml:space="preserve" text-anchor="start" x="7" y="-35.5" font-family="Helvetica,sans-Serif" font-size="12.00" fill="#28251d">+ operator bool()</text>
<text xml:space="preserve" text-anchor="start" x="7" y="-22.75" font-family="Helvetica,sans-Serif" font-size="12.00" fill="#28251d">+ operator*()</text>
<text xml:space="preserve" text-anchor="start" x="7" y="-10" font-family="Helvetica,sans-Serif" font-size="12.00" fill="#28251d">+ operator-&gt;()</text>
</g>
</g>
</svg>
