<svg xmlns="http://www.w3.org/2000/svg" xmlns:xlink="http://www.w3.org/1999/xlink" width="123pt" height="228pt" viewbox="0.00 0.00 123.00 228.00" style="max-width:100%;height:auto">
<g id="graph0" class="graph" transform="scale(1 1) rotate(0) translate(4 224.25)">
<title>G</title>
<!-- nara__tsync__TsyncException184 -->
<g id="node1" class="node vis-app">
<title>nara__tsync__TsyncException184</title>
<polygon fill="#f9f8f5" stroke="none" points="0,0 0,-76.25 115.25,-76.25 115.25,0 0,0"></polygon>
<polygon fill="#01696f" stroke="#01696f" points="0,-50.5 0,-50.5 115.25,-50.5 115.25,-50.5 0,-50.5"></polygon>
<polygon fill="#01696f" stroke="#01696f" points="0,-25.75 0,-25.75 115.25,-25.75 115.25,-25.75 0,-25.75"></polygon>
<polygon fill="none" stroke="#01696f" points="0,0 0,-76.25 115.25,-76.25 115.25,0 0,0"></polygon>
<text xml:space="preserve" text-anchor="start" x="7" y="-58.85" font-family="Helvetica,sans-Serif" font-weight="bold" font-size="12.00" fill="#28251d">TsyncException</text>
<text xml:space="preserve" text-anchor="start" x="7" y="-34.75" font-family="Helvetica,sans-Serif" font-size="12.00" fill="#28251d"> </text>
<text xml:space="preserve" text-anchor="start" x="7" y="-10" font-family="Helvetica,sans-Serif" font-size="12.00" fill="#28251d">+ TsyncException()</text>
</g>
<!-- nara__core__Exception792 -->
<g id="node2" class="node vis-app">
<title>nara__core__Exception792</title>
<g id="a_node2"><a xlink:href="cl_ara_core_Exception_a2d771.html" xlink:title="Excepción" class="vis-app">
<path fill="#f9f8f5" stroke="#01696f" d="M81.75,-148.25C81.75,-148.25 33.5,-148.25 33.5,-148.25 27.5,-148.25 21.5,-142.25 21.5,-136.25 21.5,-136.25 21.5,-124.25 21.5,-124.25 21.5,-118.25 27.5,-112.25 33.5,-112.25 33.5,-112.25 81.75,-112.25 81.75,-112.25 87.75,-112.25 93.75,-118.25 93.75,-124.25 93.75,-124.25 93.75,-136.25 93.75,-136.25 93.75,-142.25 87.75,-148.25 81.75,-148.25"></path>
<text xml:space="preserve" text-anchor="middle" x="57.62" y="-125.22" font-family="Helvetica,sans-Serif" font-size="12.00" fill="#01696f">Excepción</text>
</a>
</g>
</g>
<!-- nara__tsync__TsyncException184&#45;&gt;nara__core__Exception792 -->
<g id="edge1" class="edge">
<title>nara__tsync__TsyncException184-&gt;nara__core__Exception792</title>
<path fill="none" stroke="#7a7974" stroke-width="1.2" d="M57.62,-76.04C57.62,-84.11 57.62,-92.54 57.62,-100.25"></path>
<polygon fill="none" stroke="#7a7974" stroke-width="1.2" points="54.13,-100.16 57.63,-110.16 61.13,-100.16 54.13,-100.16"></polygon>
</g>
<!-- nstd__exception10 -->
<g id="node3" class="node">
<title>nstd__exception10</title>
<path fill="#efeeea" stroke="#7a7974" d="M90.38,-220.25C90.38,-220.25 24.87,-220.25 24.87,-220.25 18.88,-220.25 12.88,-214.25 12.88,-208.25 12.88,-208.25 12.88,-196.25 12.88,-196.25 12.88,-190.25 18.88,-184.25 24.88,-184.25 24.88,-184.25 90.38,-184.25 90.38,-184.25 96.38,-184.25 102.38,-190.25 102.38,-196.25 102.38,-196.25 102.38,-208.25 102.38,-208.25 102.38,-214.25 96.38,-220.25 90.38,-220.25"></path>
<text xml:space="preserve" text-anchor="middle" x="57.62" y="-197.22" font-family="Helvetica,sans-Serif" font-size="12.00" fill="#7a7974">std::exception</text>
</g>
<!-- nara__core__Exception792&#45;&gt;nstd__exception10 -->
<g id="edge2" class="edge">
<title>nara__core__Exception792-&gt;nstd__exception10</title>
<path fill="none" stroke="#7a7974" stroke-width="1.2" d="M57.62,-148.55C57.62,-155.76 57.62,-164.32 57.62,-172.43"></path>
<polygon fill="none" stroke="#7a7974" stroke-width="1.2" points="54.13,-172.33 57.63,-182.33 61.13,-172.33 54.13,-172.33"></polygon>
</g>
</g>
</svg>
