<svg xmlns="http://www.w3.org/2000/svg" xmlns:xlink="http://www.w3.org/1999/xlink" width="204pt" height="98pt" viewbox="0.00 0.00 204.00 98.00" style="max-width:100%;height:auto">
<g id="graph0" class="graph" transform="scale(1 1) rotate(0) translate(4 93.5)">
<title>G</title>
<g id="clust1" class="cluster">
<title>cluster_ns</title>
<path fill="none" stroke="#d4d1ca" d="M20,-8C20,-8 176,-8 176,-8 182,-8 188,-14 188,-20 188,-20 188,-69.5 188,-69.5 188,-75.5 182,-81.5 176,-81.5 176,-81.5 20,-81.5 20,-81.5 14,-81.5 8,-75.5 8,-69.5 8,-69.5 8,-20 8,-20 8,-14 14,-8 20,-8"></path>
<text xml:space="preserve" text-anchor="middle" x="98" y="-13.15" font-family="Helvetica,sans-Serif" font-size="13.00" fill="#7a7974">ara::sm::s2r</text>
</g>
<!-- nara__sm__s2r__S2RHub -->
<g id="node1" class="node vis-priv">
<title>nara__sm__s2r__S2RHub</title>
<g id="a_node1"><a xlink:href="../classes/cl_ara_sm_s2r_S2RHub_824327.html" xlink:title="ara::sm::s2r::S2RHub" class="vis-priv">
<path fill="#f9f8f5" stroke="#01696f" d="M66.25,-73.5C66.25,-73.5 27.75,-73.5 27.75,-73.5 21.75,-73.5 15.75,-67.5 15.75,-61.5 15.75,-61.5 15.75,-49.5 15.75,-49.5 15.75,-43.5 21.75,-37.5 27.75,-37.5 27.75,-37.5 66.25,-37.5 66.25,-37.5 72.25,-37.5 78.25,-43.5 78.25,-49.5 78.25,-49.5 78.25,-61.5 78.25,-61.5 78.25,-67.5 72.25,-73.5 66.25,-73.5"></path>
<text xml:space="preserve" text-anchor="middle" x="47" y="-50.48" font-family="Helvetica,sans-Serif" font-size="12.00" fill="#01696f">S2RHub</text>
</a>
</g>
</g>
<!-- nara__sm__s2r__S2RSatellite -->
<g id="node2" class="node vis-priv">
<title>nara__sm__s2r__S2RSatellite</title>
<g id="a_node2"><a xlink:href="../classes/cl_ara_sm_s2r_S2RSatellite_fbf4f1.html" xlink:title="ara::sm::s2r::S2RSatellite" class="vis-priv">
<path fill="#f9f8f5" stroke="#01696f" d="M167.75,-73.5C167.75,-73.5 108.25,-73.5 108.25,-73.5 102.25,-73.5 96.25,-67.5 96.25,-61.5 96.25,-61.5 96.25,-49.5 96.25,-49.5 96.25,-43.5 102.25,-37.5 108.25,-37.5 108.25,-37.5 167.75,-37.5 167.75,-37.5 173.75,-37.5 179.75,-43.5 179.75,-49.5 179.75,-49.5 179.75,-61.5 179.75,-61.5 179.75,-67.5 173.75,-73.5 167.75,-73.5"></path>
<text xml:space="preserve" text-anchor="middle" x="138" y="-50.48" font-family="Helvetica,sans-Serif" font-size="12.00" fill="#01696f">S2RSatellite</text>
</a>
</g>
</g>
</g>
</svg>
