<svg xmlns="http://www.w3.org/2000/svg" xmlns:xlink="http://www.w3.org/1999/xlink" viewbox="0.00 0.00 896.00 161.00" style="max-width:1195px">
<g id="graph0" class="graph" transform="scale(1 1) rotate(0) translate(4 156.57)">
<title>G</title>
<text xml:space="preserve" text-anchor="middle" x="443.94" y="-136.22" font-family="Helvetica,sans-Serif" font-size="13.00" fill="#28251d">Messages when logging is unavailable</text>
<!-- start -->
<g id="node1" class="node">
<title>start</title>
<ellipse fill="#28251d" stroke="#28251d" stroke-width="1.2" cx="5.76" cy="-102" rx="5.76" ry="5.76"></ellipse>
</g>
<!-- call -->
<g id="node2" class="node">
<title>call</title>
<path fill="#ffffff" stroke="#01696f" stroke-width="1.2" d="M90.52,-120C90.52,-120 60.52,-120 60.52,-120 54.52,-120 48.52,-114 48.52,-108 48.52,-108 48.52,-96 48.52,-96 48.52,-90 54.52,-84 60.52,-84 60.52,-84 90.52,-84 90.52,-84 96.52,-84 102.52,-90 102.52,-96 102.52,-96 102.52,-108 102.52,-108 102.52,-114 96.52,-120 90.52,-120"></path>
<text xml:space="preserve" text-anchor="middle" x="75.52" y="-97.55" font-family="Helvetica,sans-Serif" font-size="11.00" fill="#01696f">Log call</text>
</g>
<!-- start&#45;&gt;call -->
<g id="edge1" class="edge">
<title>start-&gt;call</title>
<path fill="none" stroke="#28251d" stroke-width="1.1" d="M12.08,-102C17.64,-102 26.9,-102 36.6,-102"></path>
<polygon fill="#28251d" stroke="#28251d" stroke-width="1.1" points="36.34,-105.5 46.34,-102 36.34,-98.5 36.34,-105.5"></polygon>
</g>
<!-- ready -->
<g id="node3" class="node">
<title>ready</title>
<path fill="#ffffff" stroke="#01696f" stroke-width="1.2" d="M218.52,-120C218.52,-120 151.52,-120 151.52,-120 145.52,-120 139.52,-114 139.52,-108 139.52,-108 139.52,-96 139.52,-96 139.52,-90 145.52,-84 151.52,-84 151.52,-84 218.52,-84 218.52,-84 224.52,-84 230.52,-90 230.52,-96 230.52,-96 230.52,-108 230.52,-108 230.52,-114 224.52,-120 218.52,-120"></path>
<text xml:space="preserve" text-anchor="middle" x="185.02" y="-103.55" font-family="Helvetica,sans-Serif" font-size="11.00" fill="#01696f">Framework can</text>
<text xml:space="preserve" text-anchor="middle" x="185.02" y="-91.55" font-family="Helvetica,sans-Serif" font-size="11.00" fill="#01696f">handle?</text>
</g>
<!-- call&#45;&gt;ready -->
<g id="edge2" class="edge">
<title>call-&gt;ready</title>
<path fill="none" stroke="#28251d" stroke-width="1.1" d="M103.09,-102C110.53,-102 118.91,-102 127.39,-102"></path>
<polygon fill="#28251d" stroke="#28251d" stroke-width="1.1" points="127.26,-105.5 137.26,-102 127.26,-98.5 127.26,-105.5"></polygon>
</g>
<!-- sinks -->
<g id="node5" class="node">
<title>sinks</title>
<path fill="#ffffff" stroke="#01696f" stroke-width="1.2" d="M813.64,-94C813.64,-94 771.39,-94 771.39,-94 765.39,-94 759.39,-88 759.39,-82 759.39,-82 759.39,-70 759.39,-70 759.39,-64 765.39,-58 771.39,-58 771.39,-58 813.64,-58 813.64,-58 819.64,-58 825.64,-64 825.64,-70 825.64,-70 825.64,-82 825.64,-82 825.64,-88 819.64,-94 813.64,-94"></path>
<text xml:space="preserve" text-anchor="middle" x="792.52" y="-77.55" font-family="Helvetica,sans-Serif" font-size="11.00" fill="#01696f">configured</text>
<text xml:space="preserve" text-anchor="middle" x="792.52" y="-65.55" font-family="Helvetica,sans-Serif" font-size="11.00" fill="#01696f">log sinks</text>
</g>
<!-- ready&#45;&gt;sinks -->
<g id="edge3" class="edge">
<title>ready-&gt;sinks</title>
<path fill="none" stroke="#28251d" stroke-width="1.1" d="M230.98,-110.07C236.86,-110.87 242.82,-111.55 248.52,-112 292.38,-115.49 303.52,-112.31 347.52,-112 504.09,-110.89 545.46,-133.49 699.77,-107 716.04,-104.21 733.32,-99 748.45,-93.64"></path>
<polygon fill="#28251d" stroke="#28251d" stroke-width="1.1" points="749.3,-97.05 757.48,-90.31 746.88,-90.48 749.3,-97.05"></polygon>
<text xml:space="preserve" text-anchor="middle" x="523.27" y="-121.57" font-family="Helvetica,sans-Serif" font-size="10.00" fill="#28251d">yes</text>
</g>
<!-- queue -->
<g id="node6" class="node">
<title>queue</title>
<path fill="#ffffff" stroke="#01696f" stroke-width="1.2" d="M466.27,-79C466.27,-79 377.52,-79 377.52,-79 371.52,-79 365.52,-73 365.52,-67 365.52,-67 365.52,-55 365.52,-55 365.52,-49 371.52,-43 377.52,-43 377.52,-43 466.27,-43 466.27,-43 472.27,-43 478.27,-49 478.27,-55 478.27,-55 478.27,-67 478.27,-67 478.27,-73 472.27,-79 466.27,-79"></path>
<text xml:space="preserve" text-anchor="middle" x="421.89" y="-62.55" font-family="Helvetica,sans-Serif" font-size="11.00" fill="#01696f">Queue</text>
<text xml:space="preserve" text-anchor="middle" x="421.89" y="-50.55" font-family="Helvetica,sans-Serif" font-size="11.00" fill="#01696f">(logSink.queueSize)</text>
</g>
<!-- ready&#45;&gt;queue -->
<g id="edge4" class="edge">
<title>ready-&gt;queue</title>
<path fill="none" stroke="#28251d" stroke-width="1.1" d="M231.05,-92.81C236.92,-91.66 242.86,-90.53 248.52,-89.5 283.2,-83.17 321.92,-76.71 353.87,-71.55"></path>
<polygon fill="#28251d" stroke="#28251d" stroke-width="1.1" points="354.35,-75.01 363.66,-69.97 353.23,-68.1 354.35,-75.01"></polygon>
<text xml:space="preserve" text-anchor="middle" x="298.02" y="-102.5" font-family="Helvetica,sans-Serif" font-size="10.00" fill="#28251d">no: e.g.,</text>
<text xml:space="preserve" text-anchor="middle" x="298.02" y="-91.25" font-family="Helvetica,sans-Serif" font-size="10.00" fill="#28251d">daemon not connected</text>
</g>
<!-- ende -->
<g id="node4" class="node">
<title>ende</title>
<ellipse fill="#28251d" stroke="#28251d" cx="879.2" cy="-47" rx="4.68" ry="4.68"></ellipse>
<ellipse fill="none" stroke="#28251d" cx="879.2" cy="-47" rx="8.68" ry="8.68"></ellipse>
</g>
<!-- sinks&#45;&gt;ende -->
<g id="edge5" class="edge">
<title>sinks-&gt;ende</title>
<path fill="none" stroke="#28251d" stroke-width="1.1" d="M826.02,-64.87C837.43,-60.96 849.85,-56.71 859.71,-53.33"></path>
<polygon fill="#28251d" stroke="#28251d" stroke-width="1.1" points="860.66,-56.71 868.99,-50.15 858.39,-50.08 860.66,-56.71"></polygon>
</g>
<!-- full -->
<g id="node7" class="node">
<title>full</title>
<path fill="#ffffff" stroke="#01696f" stroke-width="1.2" d="M657.02,-36C657.02,-36 611.02,-36 611.02,-36 605.02,-36 599.02,-30 599.02,-24 599.02,-24 599.02,-12 599.02,-12 599.02,-6 605.02,0 611.02,0 611.02,0 657.02,0 657.02,0 663.02,0 669.02,-6 669.02,-12 669.02,-12 669.02,-24 669.02,-24 669.02,-30 663.02,-36 657.02,-36"></path>
<text xml:space="preserve" text-anchor="middle" x="634.02" y="-19.55" font-family="Helvetica,sans-Serif" font-size="11.00" fill="#01696f">Queue size</text>
<text xml:space="preserve" text-anchor="middle" x="634.02" y="-7.55" font-family="Helvetica,sans-Serif" font-size="11.00" fill="#01696f">exceeded?</text>
</g>
<!-- queue&#45;&gt;full -->
<g id="edge6" class="edge">
<title>queue-&gt;full</title>
<path fill="none" stroke="#28251d" stroke-width="1.1" d="M478.65,-49.59C512.55,-42.65 555.29,-33.91 587.2,-27.38"></path>
<polygon fill="#28251d" stroke="#28251d" stroke-width="1.1" points="587.71,-30.85 596.8,-25.41 586.31,-23.99 587.71,-30.85"></polygon>
</g>
<!-- deinit -->
<g id="node8" class="node">
<title>deinit</title>
<path fill="#ffffff" stroke="#01696f" stroke-width="1.2" d="M687.77,-98C687.77,-98 580.27,-98 580.27,-98 574.27,-98 568.27,-92 568.27,-86 568.27,-86 568.27,-66 568.27,-66 568.27,-60 574.27,-54 580.27,-54 580.27,-54 687.77,-54 687.77,-54 693.77,-54 699.77,-60 699.77,-66 699.77,-66 699.77,-86 699.77,-86 699.77,-92 693.77,-98 687.77,-98"></path>
<text xml:space="preserve" text-anchor="middle" x="634.02" y="-83.55" font-family="Helvetica,sans-Serif" font-size="11.00" fill="#01696f">Deinitialize():</text>
<text xml:space="preserve" text-anchor="middle" x="634.02" y="-71.55" font-family="Helvetica,sans-Serif" font-size="11.00" fill="#01696f">deliver all Queue entries</text>
<text xml:space="preserve" text-anchor="middle" x="634.02" y="-59.55" font-family="Helvetica,sans-Serif" font-size="11.00" fill="#01696f">to sinks</text>
</g>
<!-- queue&#45;&gt;deinit -->
<g id="edge7" class="edge">
<title>queue-&gt;deinit</title>
<path fill="none" stroke="#28251d" stroke-width="1.1" d="M478.65,-64.98C502.38,-66.67 530.44,-68.68 556.08,-70.51"></path>
<polygon fill="#28251d" stroke="#28251d" stroke-width="1.1" points="555.79,-74 566.01,-71.22 556.29,-67.01 555.79,-74"></polygon>
<text xml:space="preserve" text-anchor="middle" x="523.27" y="-71.59" font-family="Helvetica,sans-Serif" font-size="10.00" fill="#28251d">Deinitialize()</text>
</g>
<!-- full&#45;&gt;queue -->
<g id="edge8" class="edge">
<title>full-&gt;queue</title>
<path fill="none" stroke="#28251d" stroke-width="1.1" d="M598.67,-14.21C570.63,-12.18 530.22,-11.68 496.27,-20.75 483.48,-24.16 470.5,-30.25 459.09,-36.67"></path>
<polygon fill="#28251d" stroke="#28251d" stroke-width="1.1" points="457.34,-33.63 450.53,-41.74 460.91,-39.65 457.34,-33.63"></polygon>
<text xml:space="preserve" text-anchor="middle" x="523.27" y="-22.5" font-family="Helvetica,sans-Serif" font-size="10.00" fill="#28251d">no</text>
</g>
<!-- discard -->
<g id="node9" class="node">
<title>discard</title>
<path fill="#ffffff" stroke="#01696f" stroke-width="1.2" d="M821.52,-39C821.52,-39 763.52,-39 763.52,-39 757.52,-39 751.52,-33 751.52,-27 751.52,-27 751.52,-15 751.52,-15 751.52,-9 757.52,-3 763.52,-3 763.52,-3 821.52,-3 821.52,-3 827.52,-3 833.52,-9 833.52,-15 833.52,-15 833.52,-27 833.52,-27 833.52,-33 827.52,-39 821.52,-39"></path>
<text xml:space="preserve" text-anchor="middle" x="792.52" y="-22.55" font-family="Helvetica,sans-Serif" font-size="11.00" fill="#01696f">discard oldest</text>
<text xml:space="preserve" text-anchor="middle" x="792.52" y="-10.55" font-family="Helvetica,sans-Serif" font-size="11.00" fill="#01696f">entries</text>
</g>
<!-- full&#45;&gt;discard -->
<g id="edge9" class="edge">
<title>full-&gt;discard</title>
<path fill="none" stroke="#28251d" stroke-width="1.1" d="M669.36,-18.66C689.99,-19.05 716.64,-19.56 739.78,-20.01"></path>
<polygon fill="#28251d" stroke="#28251d" stroke-width="1.1" points="739.43,-23.5 749.5,-20.19 739.57,-16.5 739.43,-23.5"></polygon>
<text xml:space="preserve" text-anchor="middle" x="725.64" y="-21.61" font-family="Helvetica,sans-Serif" font-size="10.00" fill="#28251d">yes</text>
</g>
<!-- deinit&#45;&gt;sinks -->
<g id="edge10" class="edge">
<title>deinit-&gt;sinks</title>
<path fill="none" stroke="#28251d" stroke-width="1.1" d="M700.03,-76C716.07,-76 732.87,-76 747.63,-76"></path>
<polygon fill="#28251d" stroke="#28251d" stroke-width="1.1" points="747.32,-79.5 757.32,-76 747.32,-72.5 747.32,-79.5"></polygon>
</g>
<!-- discard&#45;&gt;ende -->
<g id="edge11" class="edge">
<title>discard-&gt;ende</title>
<path fill="none" stroke="#28251d" stroke-width="1.1" d="M833.88,-33.39C842.83,-36.14 851.9,-38.92 859.48,-41.25"></path>
<polygon fill="#28251d" stroke="#28251d" stroke-width="1.1" points="858.38,-44.57 868.96,-44.16 860.43,-37.88 858.38,-44.57"></polygon>
</g>
</g>
</svg>
