<svg xmlns="http://www.w3.org/2000/svg" xmlns:xlink="http://www.w3.org/1999/xlink" viewbox="0.00 0.00 1153.00 130.00" style="max-width:1537px">
<g id="graph0" class="graph" transform="scale(1 1) rotate(0) translate(4 125.84)">
<title>G</title>
<text xml:space="preserve" text-anchor="middle" x="572.57" y="-105.49" font-family="Helvetica,sans-Serif" font-size="13.00" fill="#28251d">GlobalSupervisionStatus – consolidated worst-of view</text>
<!-- i -->
<g id="node1" class="node">
<title>i</title>
<ellipse fill="#28251d" stroke="#28251d" stroke-width="1.2" cx="5.76" cy="-26.33" rx="5.76" ry="5.76"></ellipse>
</g>
<!-- d -->
<g id="node2" class="node">
<title>d</title>
<path fill="#ffffff" stroke="#01696f" stroke-width="1.2" d="M134.27,-44.33C134.27,-44.33 60.52,-44.33 60.52,-44.33 54.52,-44.33 48.52,-38.33 48.52,-32.33 48.52,-32.33 48.52,-20.33 48.52,-20.33 48.52,-14.33 54.52,-8.33 60.52,-8.33 60.52,-8.33 134.27,-8.33 134.27,-8.33 140.27,-8.33 146.27,-14.33 146.27,-20.33 146.27,-20.33 146.27,-32.33 146.27,-32.33 146.27,-38.33 140.27,-44.33 134.27,-44.33"></path>
<text xml:space="preserve" text-anchor="middle" x="97.39" y="-21.88" font-family="Helvetica,sans-Serif" font-size="11.00" fill="#01696f">kDEACTIVATED</text>
</g>
<!-- i&#45;&gt;d -->
<g id="edge1" class="edge">
<title>i-&gt;d</title>
<path fill="none" stroke="#28251d" stroke-width="1.1" d="M12.1,-26.33C17.52,-26.33 26.56,-26.33 36.75,-26.33"></path>
<polygon fill="#28251d" stroke="#28251d" stroke-width="1.1" points="36.48,-29.83 46.48,-26.33 36.48,-22.83 36.48,-29.83"></polygon>
</g>
<!-- o -->
<g id="node3" class="node">
<title>o</title>
<path fill="#ffffff" stroke="#01696f" stroke-width="1.2" d="M378.02,-95.33C378.02,-95.33 348.02,-95.33 348.02,-95.33 342.02,-95.33 336.02,-89.33 336.02,-83.33 336.02,-83.33 336.02,-71.33 336.02,-71.33 336.02,-65.33 342.02,-59.33 348.02,-59.33 348.02,-59.33 378.02,-59.33 378.02,-59.33 384.02,-59.33 390.02,-65.33 390.02,-71.33 390.02,-71.33 390.02,-83.33 390.02,-83.33 390.02,-89.33 384.02,-95.33 378.02,-95.33"></path>
<text xml:space="preserve" text-anchor="middle" x="363.02" y="-72.88" font-family="Helvetica,sans-Serif" font-size="11.00" fill="#01696f">kOK</text>
</g>
<!-- d&#45;&gt;o -->
<g id="edge2" class="edge">
<title>d-&gt;o</title>
<path fill="none" stroke="#28251d" stroke-width="1.1" d="M135.3,-44.92C144.56,-48.92 154.62,-52.73 164.27,-55.33 218.65,-69.95 283.96,-74.87 324.23,-76.52"></path>
<polygon fill="#28251d" stroke="#28251d" stroke-width="1.1" points="323.86,-80 333.97,-76.86 324.11,-73.01 323.86,-80"></polygon>
<text xml:space="preserve" text-anchor="middle" x="238.9" y="-77.74" font-family="Helvetica,sans-Serif" font-size="10.00" fill="#28251d">at least one elementary status OK</text>
</g>
<!-- o&#45;&gt;d -->
<g id="edge3" class="edge">
<title>o-&gt;d</title>
<path fill="none" stroke="#28251d" stroke-width="1.1" d="M341.78,-58.74C333.6,-52.31 323.69,-45.8 313.52,-42.08 263.32,-23.71 202.22,-20.93 157.98,-22.06"></path>
<polygon fill="#28251d" stroke="#28251d" stroke-width="1.1" points="158.08,-18.55 148.21,-22.39 158.32,-25.55 158.08,-18.55"></polygon>
<text xml:space="preserve" text-anchor="middle" x="238.9" y="-43.83" font-family="Helvetica,sans-Serif" font-size="10.00" fill="#28251d">all deactivated</text>
</g>
<!-- f -->
<g id="node4" class="node">
<title>f</title>
<path fill="#ffffff" stroke="#01696f" stroke-width="1.2" d="M581.77,-61.33C581.77,-61.33 546.27,-61.33 546.27,-61.33 540.27,-61.33 534.27,-55.33 534.27,-49.33 534.27,-49.33 534.27,-37.33 534.27,-37.33 534.27,-31.33 540.27,-25.33 546.27,-25.33 546.27,-25.33 581.77,-25.33 581.77,-25.33 587.77,-25.33 593.77,-31.33 593.77,-37.33 593.77,-37.33 593.77,-49.33 593.77,-49.33 593.77,-55.33 587.77,-61.33 581.77,-61.33"></path>
<text xml:space="preserve" text-anchor="middle" x="564.02" y="-38.88" font-family="Helvetica,sans-Serif" font-size="11.00" fill="#01696f">kFAILED</text>
</g>
<!-- o&#45;&gt;f -->
<g id="edge4" class="edge">
<title>o-&gt;f</title>
<path fill="none" stroke="#28251d" stroke-width="1.1" d="M385.25,-58.73C393.24,-52.86 402.78,-47.12 412.52,-44.08 448.45,-32.84 491.62,-34.02 522.49,-37.19"></path>
<polygon fill="#28251d" stroke="#28251d" stroke-width="1.1" points="521.68,-40.62 532.02,-38.29 522.49,-33.67 521.68,-40.62"></polygon>
<text xml:space="preserve" text-anchor="middle" x="457.52" y="-45.83" font-family="Helvetica,sans-Serif" font-size="10.00" fill="#28251d">temporary Alive error</text>
</g>
<!-- e -->
<g id="node5" class="node">
<title>e</title>
<path fill="#ffffff" stroke="#01696f" stroke-width="1.2" d="M789.27,-61.33C789.27,-61.33 742.52,-61.33 742.52,-61.33 736.52,-61.33 730.52,-55.33 730.52,-49.33 730.52,-49.33 730.52,-37.33 730.52,-37.33 730.52,-31.33 736.52,-25.33 742.52,-25.33 742.52,-25.33 789.27,-25.33 789.27,-25.33 795.27,-25.33 801.27,-31.33 801.27,-37.33 801.27,-37.33 801.27,-49.33 801.27,-49.33 801.27,-55.33 795.27,-61.33 789.27,-61.33"></path>
<text xml:space="preserve" text-anchor="middle" x="765.9" y="-38.88" font-family="Helvetica,sans-Serif" font-size="11.00" fill="#01696f">kEXPIRED</text>
</g>
<!-- o&#45;&gt;e -->
<g id="edge5" class="edge">
<title>o-&gt;e</title>
<path fill="none" stroke="#28251d" stroke-width="1.1" d="M390.61,-82.51C397.7,-83.68 405.38,-84.74 412.52,-85.33 545.95,-96.26 581.41,-85.37 712.52,-58.33 714.67,-57.88 716.87,-57.39 719.08,-56.88"></path>
<polygon fill="#28251d" stroke="#28251d" stroke-width="1.1" points="719.7,-60.33 728.53,-54.48 717.98,-53.54 719.7,-60.33"></polygon>
<text xml:space="preserve" text-anchor="middle" x="564.02" y="-90.84" font-family="Helvetica,sans-Serif" font-size="10.00" fill="#28251d">Expired Supervision</text>
</g>
<!-- f&#45;&gt;d -->
<g id="edge6" class="edge">
<title>f-&gt;d</title>
<path fill="none" stroke="#28251d" stroke-width="1.1" d="M533.93,-36.58C524.02,-34.55 512.84,-32.53 502.52,-31.33 353.17,-13.86 314.62,-22.04 164.27,-24.33 162.21,-24.36 160.12,-24.39 158.01,-24.43"></path>
<polygon fill="#28251d" stroke="#28251d" stroke-width="1.1" points="158.18,-20.93 148.27,-24.66 158.34,-27.93 158.18,-20.93"></polygon>
<text xml:space="preserve" text-anchor="middle" x="363.02" y="-23.43" font-family="Helvetica,sans-Serif" font-size="10.00" fill="#28251d">all deactivated</text>
</g>
<!-- f&#45;&gt;o -->
<g id="edge7" class="edge">
<title>f-&gt;o</title>
<path fill="none" stroke="#28251d" stroke-width="1.1" d="M533.83,-49.35C523.91,-51.34 512.75,-53.5 502.52,-55.33 468.44,-61.41 429.49,-67.52 401.6,-71.75"></path>
<polygon fill="#28251d" stroke="#28251d" stroke-width="1.1" points="401.38,-68.25 392.01,-73.2 402.42,-75.17 401.38,-68.25"></polygon>
<text xml:space="preserve" text-anchor="middle" x="457.52" y="-71.68" font-family="Helvetica,sans-Serif" font-size="10.00" fill="#28251d">correct again</text>
</g>
<!-- f&#45;&gt;e -->
<g id="edge8" class="edge">
<title>f-&gt;e</title>
<path fill="none" stroke="#28251d" stroke-width="1.1" d="M594.08,-43.33C626.76,-43.33 680.26,-43.33 718.68,-43.33"></path>
<polygon fill="#28251d" stroke="#28251d" stroke-width="1.1" points="718.42,-46.83 728.42,-43.33 718.42,-39.83 718.42,-46.83"></polygon>
<text xml:space="preserve" text-anchor="middle" x="669.02" y="-45.08" font-family="Helvetica,sans-Serif" font-size="10.00" fill="#28251d">Expired Supervision</text>
</g>
<!-- e&#45;&gt;d -->
<g id="edge9" class="edge">
<title>e-&gt;d</title>
<path fill="none" stroke="#28251d" stroke-width="1.1" d="M730.03,-36.4C698.23,-30.31 649.88,-21.61 607.52,-16.33 412.04,8.07 360.44,1.76 164.27,-16.33 162.2,-16.52 160.1,-16.73 157.97,-16.96"></path>
<polygon fill="#28251d" stroke="#28251d" stroke-width="1.1" points="157.68,-13.47 148.18,-18.15 158.53,-20.42 157.68,-13.47"></polygon>
<text xml:space="preserve" text-anchor="middle" x="457.52" y="-6.68" font-family="Helvetica,sans-Serif" font-size="10.00" fill="#28251d">all deactivated</text>
</g>
<!-- s -->
<g id="node6" class="node">
<title>s</title>
<path fill="#ffffff" stroke="#01696f" stroke-width="1.2" d="M1014.52,-61.33C1014.52,-61.33 964.02,-61.33 964.02,-61.33 958.02,-61.33 952.02,-55.33 952.02,-49.33 952.02,-49.33 952.02,-37.33 952.02,-37.33 952.02,-31.33 958.02,-25.33 964.02,-25.33 964.02,-25.33 1014.52,-25.33 1014.52,-25.33 1020.52,-25.33 1026.52,-31.33 1026.52,-37.33 1026.52,-37.33 1026.52,-49.33 1026.52,-49.33 1026.52,-55.33 1020.52,-61.33 1014.52,-61.33"></path>
<text xml:space="preserve" text-anchor="middle" x="989.27" y="-38.88" font-family="Helvetica,sans-Serif" font-size="11.00" fill="#01696f">kSTOPPED</text>
</g>
<!-- e&#45;&gt;s -->
<g id="edge10" class="edge">
<title>e-&gt;s</title>
<path fill="none" stroke="#28251d" stroke-width="1.1" d="M801.48,-43.33C838.75,-43.33 898.33,-43.33 940.15,-43.33"></path>
<polygon fill="#28251d" stroke="#28251d" stroke-width="1.1" points="940.05,-46.83 950.05,-43.33 940.05,-39.83 940.05,-46.83"></polygon>
<text xml:space="preserve" text-anchor="middle" x="876.65" y="-45.08" font-family="Helvetica,sans-Serif" font-size="10.00" fill="#28251d">critical + tolerance expired</text>
</g>
<!-- z -->
<g id="node7" class="node">
<title>z</title>
<ellipse fill="#28251d" stroke="#28251d" cx="1136.45" cy="-43.33" rx="4.68" ry="4.68"></ellipse>
<ellipse fill="none" stroke="#28251d" cx="1136.45" cy="-43.33" rx="8.68" ry="8.68"></ellipse>
</g>
<!-- s&#45;&gt;z -->
<g id="edge11" class="edge">
<title>s-&gt;z</title>
<path fill="none" stroke="#28251d" stroke-width="1.1" d="M1026.91,-43.33C1055.27,-43.33 1093.44,-43.33 1116.14,-43.33"></path>
<polygon fill="#28251d" stroke="#28251d" stroke-width="1.1" points="1115.86,-46.83 1125.86,-43.33 1115.86,-39.83 1115.86,-46.83"></polygon>
<text xml:space="preserve" text-anchor="middle" x="1077.15" y="-45.08" font-family="Helvetica,sans-Serif" font-size="10.00" fill="#28251d">Watchdog path</text>
</g>
</g>
</svg>
