<svg xmlns="http://www.w3.org/2000/svg" xmlns:xlink="http://www.w3.org/1999/xlink" viewbox="0.00 0.00 858.00 98.00" style="max-width:1144px">
<g id="graph0" class="graph" transform="scale(1 1) rotate(0) translate(4 94)">
<title>G</title>
<!-- mon -->
<g id="node1" class="node vis-app">
<title>mon</title>
<g id="a_node1"><a xlink:href="../classes/cl_ara_diag_Monitor_5df579.html" xlink:title="Monitor" target="_top" class="vis-app">
<polygon fill="#ffffff" stroke="#01696f" stroke-width="1.2" points="379.88,-36 325.88,-36 325.88,0 379.88,0 379.88,-36"></polygon>
<text xml:space="preserve" text-anchor="middle" x="352.88" y="-13.55" font-family="Helvetica,sans-Serif" font-size="11.00" fill="#01696f">Monitor</text>
</a>
</g>
</g>
<!-- ev -->
<g id="node2" class="node vis-app">
<title>ev</title>
<g id="a_node2"><a xlink:href="../classes/cl_ara_diag_Event_d44616.html" xlink:title="Event" target="_top" class="vis-app">
<polygon fill="#ffffff" stroke="#01696f" stroke-width="1.2" points="588.5,-63 534.5,-63 534.5,-27 588.5,-27 588.5,-63"></polygon>
<text xml:space="preserve" text-anchor="middle" x="561.5" y="-40.55" font-family="Helvetica,sans-Serif" font-size="11.00" fill="#01696f">Event</text>
</a>
</g>
</g>
<!-- mon&#45;&gt;ev -->
<g id="edge1" class="edge">
<title>mon-&gt;ev</title>
<path fill="none" stroke="#28251d" stroke-width="1.1" d="M380.37,-21.26C412.57,-25.26 468.55,-32.29 516.5,-38.75 518.45,-39.01 520.44,-39.28 522.45,-39.56"></path>
<polygon fill="#28251d" stroke="#28251d" stroke-width="1.1" points="521.95,-43.02 532.33,-40.94 522.91,-36.09 521.95,-43.02"></polygon>
<text xml:space="preserve" text-anchor="middle" x="466.25" y="-40.5" font-family="Helvetica,sans-Serif" font-size="10.00" fill="#28251d">2: ReportMonitorAction</text>
</g>
<!-- dtc -->
<g id="node3" class="node vis-app">
<title>dtc</title>
<g id="a_node3"><a xlink:href="../classes/cl_ara_diag_DTCInformation_3c3d92.html" xlink:title="DTCInformation" target="_top" class="vis-app">
<polygon fill="#ffffff" stroke="#01696f" stroke-width="1.2" points="849.75,-63 756.5,-63 756.5,-27 849.75,-27 849.75,-63"></polygon>
<text xml:space="preserve" text-anchor="middle" x="803.12" y="-40.55" font-family="Helvetica,sans-Serif" font-size="11.00" fill="#01696f">DTCInformation</text>
</a>
</g>
</g>
<!-- ev&#45;&gt;dtc -->
<g id="edge2" class="edge">
<title>ev-&gt;dtc</title>
<path fill="none" stroke="#28251d" stroke-width="1.1" d="M589.06,-45C626.4,-45 695.36,-45 744.72,-45"></path>
<polygon fill="#28251d" stroke="#28251d" stroke-width="1.1" points="744.53,-48.5 754.53,-45 744.53,-41.5 744.53,-48.5"></polygon>
<text xml:space="preserve" text-anchor="middle" x="672.5" y="-46.75" font-family="Helvetica,sans-Serif" font-size="10.00" fill="#28251d">4: status, geheugen, snapshot</text>
</g>
<!-- cond -->
<g id="node4" class="node vis-app">
<title>cond</title>
<g id="a_node4"><a xlink:href="../classes/cl_ara_diag_Condition_b614dc.html" xlink:title="Condition" target="_top" class="vis-app">
<polygon fill="#ffffff" stroke="#01696f" stroke-width="1.2" points="61.75,-36 0,-36 0,0 61.75,0 61.75,-36"></polygon>
<text xml:space="preserve" text-anchor="middle" x="30.88" y="-13.55" font-family="Helvetica,sans-Serif" font-size="11.00" fill="#01696f">Condition</text>
</a>
</g>
</g>
<!-- cond&#45;&gt;mon -->
<g id="edge3" class="edge">
<title>cond-&gt;mon</title>
<path fill="none" stroke="#28251d" stroke-width="1.1" d="M62.27,-18C120.89,-18 249.47,-18 313.73,-18"></path>
<polygon fill="#28251d" stroke="#28251d" stroke-width="1.1" points="313.66,-21.5 323.66,-18 313.66,-14.5 313.66,-21.5"></polygon>
<text xml:space="preserve" text-anchor="middle" x="184.75" y="-19.75" font-family="Helvetica,sans-Serif" font-size="10.00" fill="#28251d">1: maakt evaluatie mogelijk / blokkeert evaluatie</text>
</g>
<!-- cyc -->
<g id="node5" class="node vis-app">
<title>cyc</title>
<g id="a_node5"><a xlink:href="../classes/cl_ara_diag_OperationCycle_67d05f.html" xlink:title="OperationCycle" target="_top" class="vis-app">
<polygon fill="#ffffff" stroke="#01696f" stroke-width="1.2" points="398,-90 307.75,-90 307.75,-54 398,-54 398,-90"></polygon>
<text xml:space="preserve" text-anchor="middle" x="352.88" y="-67.55" font-family="Helvetica,sans-Serif" font-size="11.00" fill="#01696f">OperationCycle</text>
</a>
</g>
</g>
<!-- cyc&#45;&gt;ev -->
<g id="edge4" class="edge">
<title>cyc-&gt;ev</title>
<path fill="none" stroke="#28251d" stroke-width="1.1" d="M398.46,-66.17C435.55,-61.33 487.77,-54.5 522.8,-49.93"></path>
<polygon fill="#28251d" stroke="#28251d" stroke-width="1.1" points="522.87,-53.45 532.33,-48.68 521.96,-46.51 522.87,-53.45"></polygon>
<text xml:space="preserve" text-anchor="middle" x="466.25" y="-65.02" font-family="Helvetica,sans-Serif" font-size="10.00" fill="#28251d">3: cyclus-context</text>
</g>
</g>
</svg>
